<svg width="93" height="26" viewBox="0 0 93 26" fill="none" xmlns="http://www.w3.org/2000/svg">
<g clip-path="url(#clip0)">
<path d="M11.6458 12.7578H8.28371V19.1877C8.28371 20.6038 9.05072 20.9865 10.2012 20.9865C10.7637 20.9865 11.2751 20.8844 11.5946 20.8079V25.171C11.3901 25.2731 10.5208 25.6558 8.84618 25.6558C5.2668 25.6558 3.06804 23.5508 3.06804 20.119V12.7578H0V8.16511H0.869278C2.67175 8.16511 3.55381 6.95313 3.55381 5.35843V3.15137H8.28371V8.16511H11.6586V12.7578H11.6458Z" fill="#32C850"/>
<path d="M22.8568 21.3558C24.9789 21.3558 26.7814 19.6973 26.7814 16.7886C26.7814 13.816 25.0045 12.2596 22.8568 12.2596C20.7348 12.2596 19.0346 13.816 19.0346 16.7886C19.0346 19.6207 20.8115 21.3558 22.8568 21.3558ZM26.8197 23.1929C26.0527 24.8514 24.3142 25.8847 22.1538 25.8847C17.2193 25.8847 13.7039 22.0447 13.7039 16.7503C13.7039 11.6345 17.002 7.69238 21.9876 7.69238C25.0812 7.69238 26.4362 9.38914 26.7814 10.1801V8.21544H31.8948L31.9331 25.4127H26.7814L26.8197 23.3715V23.1929Z" fill="#32C850"/>
<path d="M38.0693 25.7192L34.4515 22.568L47.0433 8.03711L50.7633 11.1882L38.0693 25.7192Z" fill="#32C850"/>
<path d="M37.5451 8.2793C39.2837 8.2793 40.6771 9.6316 40.6771 11.3539C40.6771 13.0506 39.2837 14.4285 37.5451 14.4285C35.8705 14.4285 34.4899 13.0506 34.4899 11.3539C34.4899 9.6316 35.8833 8.2793 37.5451 8.2793Z" fill="#32C850"/>
<path d="M55.1353 25.6686V12.911H52.3868V8.48408H55.1353V6.99144C55.1353 3.04934 57.5386 0.344727 61.7444 0.344727C62.8182 0.344727 63.7642 0.48506 64.2499 0.727455V5.01401C63.9687 4.95022 63.5213 4.8354 62.6903 4.8354C61.7571 4.8354 60.4277 5.2564 60.4277 7.15729V8.47132H64.1732V12.8982H60.4149V25.6686H55.1353Z" fill="#32C850"/>
<path d="M67.254 25.528H72.5464V8.33072H67.254V25.528ZM69.8619 0C71.6004 0 72.9938 1.37782 72.9938 3.07458C72.9938 4.77135 71.6004 6.14917 69.8619 6.14917C68.1872 6.14917 66.8066 4.77135 66.8066 3.07458C66.7938 1.37782 68.1872 0 69.8619 0Z" fill="#32C850"/>
<path d="M83.962 20.3865L78.3245 25.9998L74.8857 22.568L80.5105 16.9674L75.0264 11.5327L78.4651 8.13917L83.9237 13.5739L89.4845 8.03711L92.9361 11.4689L87.3624 17.0057L93 22.568L89.5612 25.9998L83.962 20.3865Z" fill="#32C850"/>
<path d="M50.8016 22.3636C50.8016 24.0604 49.4082 25.4382 47.6696 25.4382C45.995 25.4382 44.6144 24.0604 44.6144 22.3636C44.6144 20.6286 46.0078 19.2891 47.6696 19.2891C49.4082 19.2891 50.8016 20.6286 50.8016 22.3636Z" fill="#32C850"/>
</g>
<defs>
<clipPath id="clip0">
<rect width="93" height="26" fill="white"/>
</clipPath>
</defs>
</svg>
