<svg width="32" height="32" viewBox="0 0 32 32" fill="none" xmlns="http://www.w3.org/2000/svg">
<path fill-rule="evenodd" clip-rule="evenodd" d="M26.1995 32C23.053 32 20.4844 29.4245 20.4844 26.334C20.4844 23.1147 23.053 20.5392 26.1995 20.5392C29.4102 20.5392 31.9146 23.1147 31.9146 26.334C31.9146 29.4245 29.4102 32 26.1995 32ZM5.71692 11.4622C2.5704 11.4622 0.00181871 8.88672 0.00181885 5.79618C0.00181899 2.57685 2.5704 0.0013949 5.71692 0.00139503C8.92765 0.00139517 11.432 2.57685 11.432 5.79618C11.432 8.88673 8.92765 11.4622 5.71692 11.4622ZM-2.26208e-05 25.8833L6.10036 32L31.9146 6.1167L25.8142 3.54804e-06L-2.26208e-05 25.8833Z" fill="white"/>
</svg>
